<?xml version="1.0" encoding="UTF-8" standalone="no"?>
<!-- Created with Inkscape (http://www.inkscape.org/) -->

<svg
   width="6.4992237mm"
   height="9.9769268mm"
   viewBox="0 0 6.4992237 9.9769268"
   version="1.1"
   id="svg1"
   xmlns:inkscape="http://www.inkscape.org/namespaces/inkscape"
   xmlns:sodipodi="http://sodipodi.sourceforge.net/DTD/sodipodi-0.dtd"
   xmlns="http://www.w3.org/2000/svg"
   xmlns:svg="http://www.w3.org/2000/svg">
  <sodipodi:namedview
     id="namedview1"
     pagecolor="#ffffff"
     bordercolor="#000000"
     borderopacity="0.25"
     inkscape:showpageshadow="2"
     inkscape:pageopacity="0.0"
     inkscape:pagecheckerboard="0"
     inkscape:deskcolor="#d1d1d1"
     inkscape:document-units="mm" />
  <defs
     id="defs1" />
  <g
     inkscape:label="Camada 1"
     inkscape:groupmode="layer"
     id="layer1"
     transform="translate(-101.59968,-143.40423)">
    <path
       d="m 108.00742,144.48959 c -0.0857,-0.13139 -0.21114,-0.13517 -0.35375,-0.13949 -0.0164,-4.7e-4 -0.0328,-9.7e-4 -0.0492,-0.002 -0.0127,-5.8e-4 -0.0267,-3.5e-4 -0.0413,-1.1e-4 -0.0579,9.3e-4 -0.12567,0.002 -0.1598,-0.0467 -0.0397,-0.0564 -0.036,-0.1655 -0.0328,-0.25553 0.001,-0.0284 0.002,-0.055 0.001,-0.0774 -0.006,-0.20915 -0.0172,-0.43132 -0.0979,-0.50559 -0.0609,-0.0557 -0.24288,-0.048 -0.41089,-0.0409 -0.0545,0.002 -0.10742,0.005 -0.15426,0.005 h -3.57531 c -0.072,0 -0.14737,-0.006 -0.22172,-0.0116 -0.14446,-0.0112 -0.2839,-0.0221 -0.38285,0.0116 -0.14367,0.0491 -0.15346,0.30721 -0.16272,0.55023 l -5.3e-4,0.0131 c -0.008,0.20064 -0.0574,0.35544 -0.22199,0.33986 -0.19182,-0.0179 -0.38258,-0.0235 -0.4691,0.14997 -0.1024,0.20523 -0.0812,0.42007 -0.0434,0.80486 0.005,0.055 0.0111,0.1134 0.0169,0.17579 h 6.41456 c 0.004,-0.0456 0.008,-0.0906 0.0116,-0.13489 0.0299,-0.34618 0.0561,-0.64783 -0.0669,-0.83611 z"
       fill="#8047f8"
       id="path1"
       style="stroke-width:0.264583" />
    <path
       fill-rule="evenodd"
       clip-rule="evenodd"
       d="m 102.14769,145.84222 c 0.10028,1.35594 0.19923,2.71341 0.29845,4.07093 v 8.2e-4 c 0.0537,0.73708 0.10769,1.47416 0.16166,2.21102 h 0.20453 c 0.014,0.11533 0.0299,0.25773 0.0468,0.40786 0.0341,0.30474 0.0717,0.64143 0.10345,0.8483 h 0.0228 c 0.20849,-0.0763 1.64968,-0.69233 1.65047,-3.14497 -2.6e-4,-0.007 -2.6e-4,-0.014 5.3e-4,-0.0209 h -0.35613 c -0.0172,-1.6e-4 -0.0339,-0.006 -0.0474,-0.0164 -0.0138,-0.0104 -0.0235,-0.0251 -0.0278,-0.0415 -0.0347,-0.0857 -0.0627,-0.17394 -0.0839,-0.2639 -0.20929,0.11832 -0.37571,0.29898 -0.47519,0.51623 -0.0945,-0.22251 -0.10689,-0.47074 -0.0349,-0.70136 0.072,-0.23061 0.22358,-0.42889 0.42836,-0.56022 0.002,-0.7157 0.27041,-1.4056 0.75301,-1.93911 l 0.008,-0.007 c 0.014,-0.0121 0.0318,-0.0189 0.0505,-0.019 0.0108,1e-4 0.0214,0.002 0.0312,0.007 0.01,0.004 0.0188,0.0109 0.0262,0.0189 0.48816,0.53425 0.75459,1.23076 0.74639,1.95069 0.20849,0.12767 0.36327,0.32581 0.43524,0.55767 0.072,0.23185 0.0566,0.48167 -0.0437,0.70307 -0.099,-0.21759 -0.26537,-0.39841 -0.47519,-0.5162 -0.013,0.0872 -0.0365,0.17248 -0.0704,0.25398 -0.0116,0.0347 -0.0352,0.0571 -0.0585,0.0571 h -0.37994 c 7.9e-4,0.004 0.001,0.008 0.001,0.0125 l 2.7e-4,9.5e-4 v 0.002 c 0,0.004 0,0.007 0,0.0108 0.005,2.52304 1.53749,3.09574 1.66661,3.13952 h 0.0442 c 0.0114,-0.19872 0.0482,-0.47294 0.0839,-0.74027 0.0246,-0.18421 0.049,-0.36518 0.064,-0.51589 h 0.20717 c 0.0661,-0.92813 0.13441,-1.85367 0.20241,-2.77923 v -5.1e-4 -2.6e-4 c 0.0873,-1.18391 0.17462,-2.36784 0.2577,-3.55727 h -5.42872 c -0.0156,0.003 -0.0145,0.0286 -0.0132,0.0545 z m 2.70299,1.3411 h -5.3e-4 0.001 z"
       fill="#8047f8"
       id="path2"
       style="stroke-width:0.264583" />
  </g>
</svg>
